<?xml version="1.0" encoding="utf-8"?>
<!-- Generator: Adobe Illustrator 21.0.0, SVG Export Plug-In . SVG Version: 6.00 Build 0)  -->
<svg version="1.1" id="Layer_1" xmlns="http://www.w3.org/2000/svg" xmlns:xlink="http://www.w3.org/1999/xlink" x="0px" y="0px"
	 viewBox="0 0 1045.8 99.3" style="enable-background:new 0 0 1045.8 99.3;" xml:space="preserve">
<style type="text/css">
	.st0{fill:#5E6A6C;}
	.st1{fill:#38B9D8;}
</style>
<path class="st0" d="M0,83c0-3.4,0-6.7,0-10.1c0-1,0-1.1,1.1-1.1c2.7,0,5.5,0,8.2,0c0.7,0,1,0.2,1.1,0.9c0.7,3.8,1.5,7.6,2.1,11.4
	c0.1,0.8,0.5,1.2,1.3,1.6c2.5,1.1,5.1,1.8,7.7,2.2c4.7,0.8,9.4,0.6,14-0.9c2.9-1,5.5-2.4,7.6-4.7c2.6-2.8,3.5-6.1,2.8-9.9
	c-0.3-1.7-1.2-3.2-2.4-4.5c-1.8-1.9-3.9-3.3-6.2-4.5C34.5,62,31.5,61,28.5,60c-4.9-1.6-9.6-3.7-14.2-6c-3.8-1.9-7.2-4.3-9.9-7.8
	C1.9,42.9,0.6,39.2,0.3,35C0.1,32,0.2,29,1,26c1.8-6.9,6.1-11.8,12.4-14.9c3.5-1.7,7.3-2.6,11.1-3.1c6.5-0.9,12.9-0.1,19.3,1.2
	C48,10,52,11.1,56.1,12.3c1.4,0.4,1.1,0.4,1.1,1.5c-0.2,6.5-0.4,13-0.5,19.6c0,0.9,0,1-1,1c-2.1,0-4.2,0-6.3,0c-1,0-1,0-1.3-1
	c-1.2-3.9-2.5-7.7-3.7-11.6c-0.2-0.8-0.6-1.2-1.4-1.4c-4.6-1.3-9.3-1.9-14-1.8c-4.1,0.1-7.9,1.1-11.2,3.8c-1.8,1.5-3.3,3.2-3.8,5.5
	c-0.9,4.1,0.1,7.7,3.2,10.6c2.4,2.3,5.3,3.9,8.3,5.2c3.9,1.7,7.8,3.1,11.9,4.4c3.7,1.2,7.2,2.8,10.6,4.7c2.6,1.5,4.9,3.4,6.9,5.7
	c2.4,2.7,3.8,5.8,4.3,9.4c0.6,4.4,0.4,8.7-1.1,12.9c-2,6-5.9,10.5-11.3,13.7c-4.1,2.4-8.6,3.8-13.3,4.5c-6.7,1.1-13.3,0.3-19.9-0.9
	C9.2,97.1,5,96,1,94.5c-1-0.4-1-0.4-1-1.4C0,89.7,0,86.4,0,83z"/>
<path class="st0" d="M301.5,39.8c-1.1-0.4-2.3-0.7-3.5-1.1c-0.3-0.1-0.6-0.2-0.9-0.3c-1.1-0.4-1.1-0.4-1.1-1.5c0-1.7,0-3.3,0-5
	c0-0.6,0.2-1,0.9-0.9c0.2,0,0.3,0,0.5,0c5.4-0.1,10.8-0.2,16.2-0.3c3.1-0.1,6.2-0.2,9.3-0.2c1,0,1.1,0,1.1,1c0,1.8,0,3.7,0,5.5
	c0,1,0,1.1-1.1,1.3c-2.3,0.4-4.5,0.8-6.8,1.1c-0.9,0.1-1.4,0.5-1.9,1.2c-3.9,5.9-7.9,11.8-11.8,17.6c-0.4,0.6-0.5,1-0.1,1.7
	c5.2,9,10.3,18,15.5,26.9c0.4,0.6,0.8,0.9,1.5,1.1c2.6,0.8,5.2,1.7,7.8,2.6c0.7,0.2,1,0.5,0.9,1.3c-0.1,1.7,0,3.4,0,5.1
	c0,0.9,0,1-0.9,1c-5.2,0-10.3,0-15.5,0c-0.8,0-1-0.5-1.3-1c-2-3.6-4.1-7.3-6.1-10.9c-3.6-6.5-7.3-13-10.9-19.5
	c-0.4-0.8-0.9-1.1-1.8-1c-2.9,0.1-5.8,0-8.7,0c-1.1,0-1.2,0-1.2,1.1c0,6.7,0,13.5,0,20.2c0,0.7,0.2,1.1,0.9,1.3
	c2.2,0.8,4.4,1.7,6.6,2.5c0.6,0.2,0.8,0.6,0.8,1.2c0,1.7,0,3.5,0,5.2c0,0.6-0.2,1-0.9,0.9c-0.3,0-0.5,0-0.8,0c-9.5,0-19,0-28.5,0
	c-0.2,0-0.3,0-0.5,0c-1.1,0-1.1,0-1.1-1.1c0-1.6,0-3.2,0-4.7c0-1.2,0-1.2,1.1-1.5c2.9-0.8,5.7-1.7,8.6-2.5c1.1-0.3,1.1-0.3,1.1-1.4
	c0-25.1,0-50.2,0-75.3c0-1.2,0-1.2-1.2-1.5c-2.9-0.7-5.8-1.4-8.7-2c-0.7-0.1-0.9-0.4-0.9-1.1c0-1.7,0-3.4,0-5.1c0-1,0-1,1-1
	c1.8-0.1,3.6-0.1,5.4-0.2c5.3-0.1,10.6-0.3,15.9-0.4c0.2,0,0.4,0,0.6,0c0.5,0,0.7,0.1,0.7,0.7c0,0.3,0,0.7,0,1c0,17.5,0,35,0,52.6
	c0,1.8-0.2,1.7,1.6,1.7c2.8,0,5.5,0,8.3,0c0.5,0,0.9-0.1,1.3-0.6c2.9-5,5.9-9.9,8.8-14.8C301.5,40.3,301.6,40.2,301.5,39.8z"/>
<path class="st1" d="M623.5,98.8c-4,0.1-8-0.4-11.8-1.5c-8.8-2.7-14.7-8.4-17.9-16.9c-1.6-4.2-2.3-8.5-2.6-13
	c-0.2-3.6-0.1-7.2,0.3-10.8c0.6-4.9,1.8-9.5,4.3-13.8c3.9-6.8,9.7-10.9,17.2-12.8c5.4-1.4,10.9-1.6,16.5-0.9c4.6,0.6,9,1.9,13,4.4
	c5.3,3.4,8.8,8.2,11,14c1.4,3.8,2,7.7,2.3,11.7c0.3,3.3,0.2,6.6-0.1,9.8c-0.6,6.5-2.2,12.6-6,18c-4,5.7-9.5,9.1-16.1,10.7
	C630.2,98.6,626.9,98.9,623.5,98.8z M606.3,63.7c0,1.3-0.1,2.6,0,4c0.2,3.5,0.9,6.9,2.3,10.2c2.1,4.6,5.5,7.5,10.5,8.5
	c2.7,0.6,5.3,0.6,8,0.1c4.9-0.8,8.5-3.3,10.8-7.8c1.1-2.1,1.8-4.4,2.2-6.8c0.8-4.3,0.9-8.7,0.5-13.1c-0.3-3-0.9-5.9-2-8.7
	c-1.8-4.2-4.7-7.3-9.2-8.6c-3.1-0.9-6.4-1-9.6-0.5c-2.4,0.4-4.7,1.3-6.6,2.9c-2.9,2.3-4.5,5.3-5.5,8.7
	C606.5,56.3,606.2,60,606.3,63.7z"/>
<path class="st1" d="M534.3,63.9c0.1,5.2-0.5,10.5-2.3,15.7c-2.2,6.3-5.9,11.4-11.7,14.8c-3.1,1.9-6.5,3.1-10.1,3.7
	c-5.9,1-11.9,1.1-17.8-0.3c-11.4-2.6-18.3-9.9-21.3-21c-1.6-5.9-1.8-11.9-1.4-18c0.3-4.1,1.1-8.2,2.6-12.1
	c3.4-8.6,9.6-14.3,18.5-16.7c7.7-2.1,15.5-2,23.2,0.3c8.4,2.5,14.2,8,17.4,16.2C533.6,52.1,534.3,57.9,534.3,63.9z M519.1,64.6
	c0-2.6,0-4.5-0.3-6.4c-0.3-2.7-0.8-5.4-1.9-7.9c-1.9-4.6-5.1-7.8-10.1-9c-3-0.7-6.1-0.8-9.1-0.2c-4.7,0.9-8.1,3.6-10.3,7.8
	c-1.6,3-2.3,6.3-2.6,9.7c-0.4,3.4-0.4,6.9,0,10.3c0.3,3.2,1,6.2,2.3,9.1c2.1,4.3,5.4,7.2,10.1,8.2c3.5,0.8,7,0.7,10.5-0.3
	c2.9-0.9,5.4-2.6,7.2-5.1c1.3-1.9,2.3-3.9,2.9-6.1C518.8,71.2,519.2,67.6,519.1,64.6z"/>
<path class="st1" d="M922,63.9c0-10.7,0-21.5,0-32.2c0-0.3,0-0.6,0-0.9c0-0.9,0-1,0.9-1c4.2,0,8.4,0,12.7,0c0.6,0,1,0.2,0.9,0.9
	c0,0.4,0,0.8,0,1.2c0,7.7,0,15.3,0,23c0,0.3,0,0.7,0,1c0,0.5,0.2,0.7,0.7,0.7c0.3,0,0.5,0,0.8,0c8,0,16,0,24,0c0.3,0,0.5,0,0.8,0
	c0.5,0,0.7-0.2,0.7-0.7c0-0.3,0-0.7,0-1c0-7.8,0-15.5,0-23.3c0-0.3,0-0.5,0-0.8c0-1,0-1,1-1c4.1,0,8.2,0,12.3,0c1,0,1.1,0,1.1,1.1
	c0,1.5,0,3.1,0,4.6c0,20.2,0,40.4,0,60.6c0,0.3,0,0.6,0,0.9c0,1,0,1-1,1c-4,0-8.1,0-12.1,0c-1.2,0-1.2,0-1.2-1.2
	c0-8.9,0-17.7,0-26.6c0-1.7,0.2-1.6-1.5-1.6c-7.9,0-15.9,0-23.8,0c-0.3,0-0.5,0-0.8,0c-0.6,0-0.9,0.2-0.8,0.8c0,0.3,0,0.7,0,1
	c0,8.6,0,17.2,0,25.8c0,0.3,0,0.5,0,0.8c0,1,0,1-1,1c-4,0-8.1,0-12.1,0c-1.3,0-1.3,0-1.3-1.3C922,85.7,922,74.8,922,63.9z"/>
<path class="st1" d="M457.2,64c0,10.7,0,21.4,0,32.1c0,0.3,0,0.6,0,0.9c0,1,0,1-1,1c-4,0-8.1,0-12.1,0c-1.2,0-1.2,0-1.2-1.2
	c0-8.8,0-17.6,0-26.5c0-1.9,0.2-1.7-1.7-1.7c-7.9,0-15.8,0-23.7,0c-0.2,0-0.4,0-0.6,0c-1,0-1,0-1,1.1c0,0.3,0,0.6,0,0.9
	c0,8.6,0,17.1,0,25.7c0,0.3,0,0.7,0,1c0,0.5-0.2,0.7-0.7,0.7c-1.1,0-2.1,0-3.2,0c-3.2,0-6.3,0-9.5,0c-1,0-1,0-1-1c0-0.2,0-0.4,0-0.6
	c0-21.7,0-43.3,0-65c0-1.7-0.2-1.6,1.6-1.6c3.8,0,7.5,0,11.3,0c0.3,0,0.6,0,0.9,0c0.5,0,0.7,0.2,0.7,0.7c0,0.3,0,0.6,0,0.9
	c0,7.8,0,15.5,0,23.3c0,0.2,0,0.4,0,0.6c0,1.2,0,1.2,1.3,1.2c3.8,0,7.5,0,11.3,0c4.3,0,8.6,0,12.9,0c0.3,0,0.6,0,0.9,0
	c0.5,0,0.7-0.2,0.7-0.7c0-0.3,0-0.7,0-1c0-7.8,0-15.5,0-23.3c0-0.2,0-0.4,0-0.6c0-1.1,0-1.1,1.1-1.1c4,0,8,0,12,0
	c1.2,0,1.2,0,1.2,1.2C457.2,42,457.2,53,457.2,64z"/>
<path class="st1" d="M771.6,68.4c6.6,9.9,13.1,19.7,19.8,29.3c-0.2,0.4-0.5,0.3-0.7,0.3c-4.7,0-9.4,0-14.1,0c-0.8,0-1.2-0.3-1.6-0.9
	c-4.2-6.8-8.5-13.7-12.8-20.5c-0.8-1.3-1.6-2.6-2.4-3.9c-0.3-0.5-0.7-0.8-1.3-0.8c-2,0-3.9,0-5.9,0c-1,0-1,0-1,1c0,2.3,0,4.7,0,7
	c0,5.5,0,10.9,0,16.4c0,0.3,0,0.6,0,0.9c0.1,0.6-0.2,0.8-0.8,0.8c-0.6,0-1.2,0-1.8,0c-3.6,0-7.2,0-10.7,0c-1,0-1,0-1-1
	c0-0.3,0-0.5,0-0.8c0-21.6,0-43.1,0-64.7c0-1.9-0.2-1.7,1.7-1.7c5.7,0,11.4,0,17.1,0c3.3,0,6.6,0.1,9.9,0.7c3.4,0.6,6.7,1.4,9.7,3.2
	c3.9,2.3,6.5,5.6,7.7,9.9c1.1,3.9,1.2,7.9,0.2,11.9c-1.4,4.9-4.5,8.5-8.8,11.2C773.8,67.2,772.7,67.7,771.6,68.4z M751.6,51
	c0,2.7,0,5.5,0,8.2c0,0.9,0,1,0.9,1c2.5,0,5,0.1,7.5-0.2c1.9-0.2,3.8-0.6,5.5-1.6c1.9-1.1,3.2-2.6,3.7-4.8c0.4-1.6,0.4-3.3,0.2-4.9
	c-0.4-2.4-1.6-4.2-3.8-5.2c-1.5-0.7-3-1.1-4.6-1.3c-2.8-0.4-5.5-0.3-8.3-0.3c-1,0-1.1,0-1.1,1.1C751.6,45.5,751.6,48.2,751.6,51z"/>
<path class="st1" d="M721,77.4c0,5.4,0,10.8,0,16.2c0,1.6,0.1,1.3-1.4,1.8c-5.2,1.7-10.5,2.7-16,3.1c-3.4,0.3-6.8,0.4-10.2,0.2
	c-6.2-0.4-12-2-17-6c-3.9-3.1-6.6-7.1-8.4-11.7c-1.4-3.6-2.2-7.4-2.6-11.3c-0.3-3.1-0.3-6.2-0.2-9.3c0.3-5.7,1.6-11.2,4.5-16.2
	c4.1-7.1,10.3-11.6,18.2-13.8c5.9-1.7,12-1.9,18.1-1.4c4.4,0.4,8.7,1.5,12.9,3.1c0.2,0.1,0.5,0.2,0.7,0.3c1.3,0.5,1.3,0.5,0.8,1.8
	c-0.9,2.3-1.9,4.6-2.8,6.8c-0.4,0.9-0.8,1.8-1.1,2.7c-0.2,0.6-0.5,0.6-1,0.4c-2.5-1.2-5-2.1-7.7-2.6c-4-0.8-8-1.1-11.9-0.3
	c-6.8,1.4-11.3,5.6-13.9,12c-1.2,2.8-1.7,5.8-1.8,8.8c-0.2,3.9,0,7.8,1,11.5c0.7,2.5,1.6,4.8,3.2,6.9c2.7,3.7,6.5,5.7,11.1,6.1
	c3.5,0.3,6.9,0,10.3-0.5c1.3-0.2,1.3-0.2,1.3-1.5c0-3.9,0-7.8,0-11.6c0-1.3,0-1.3-1.3-1.3c-3.5,0-6.9,0-10.4,0c-1.1,0-1.1,0-1.1-1.1
	c0-3.3,0-6.6,0-9.8c0-1,0-1.1,1.1-1.1c8.3,0,16.5,0,24.8,0c1,0,1,0,1,1.1C721,66.3,721,71.9,721,77.4z"/>
<path class="st1" d="M793.6,97.8c0.6-1.9,1.2-3.6,1.9-5.4c4.4-12.6,8.8-25.1,13.3-37.7c2.7-7.8,5.5-15.6,8.2-23.4
	c0.2-0.4,0.3-0.9,0.5-1.3c0.1-0.3,0.3-0.5,0.7-0.5c0.2,0,0.4,0,0.6,0c5.1,0,10.2,0,15.3,0c1.2,0,1.1-0.1,1.5,1.1
	c4,11.3,8,22.6,12,34c3.8,10.8,7.6,21.5,11.4,32.3c0.1,0.3,0.2,0.6,0.3,0.9c-0.4,0.3-0.8,0.2-1.2,0.2c-4.3,0-8.7,0-13,0
	c-1.2,0-1.2,0-1.6-1.1c-1.4-4.7-2.9-9.4-4.3-14c-0.3-1.1-0.3-1.1-1.5-1.1c-7.5,0-15,0-22.5,0c-1.1,0-1.1,0-1.5,1.1
	c-1.4,4.6-2.8,9.3-4.2,13.9c-0.4,1.2-0.4,1.2-1.5,1.2c-4.4,0-8.8,0-13.2,0C794.4,98,794,98,793.6,97.8z M817.7,69.5
	c5.9,0,11.7,0,17.7,0c-2.9-9.7-6-19.2-8.9-28.9C823.6,50.3,820.6,59.9,817.7,69.5z"/>
<path class="st0" d="M153,99.2c-4.9-0.1-9.2-0.6-13.3-2.3c-7-2.9-11.8-7.9-14.5-15c-1.4-3.6-2.1-7.4-2.5-11.2
	c-0.5-5.5-0.3-10.9,0.9-16.3c1.8-7.7,5.5-14.3,11.9-19.1c4.6-3.4,9.7-5.4,15.4-5.9c4.8-0.5,9.5-0.2,14,1.2c8,2.4,13.4,7.8,16.7,15.4
	c1.7,4,2.5,8.3,2.9,12.6c0.4,4.9,0.2,9.8-0.8,14.6c-1.5,6.8-4.5,12.9-9.5,17.7c-4.5,4.3-10,6.9-16.2,7.8
	C156.2,99.1,154.4,99.1,153,99.2z M135.8,63.6c0,2.8,0,5,0.3,7.3c0.5,3.5,1.2,7,3,10.1c2.2,4.1,5.6,6.6,10.2,7.6
	c2.5,0.5,5.1,0.6,7.6,0.2c4.9-0.7,8.7-3.1,11-7.5c1.2-2.2,2-4.5,2.4-7c1.2-6.1,1.3-12.3,0.5-18.4c-0.4-3.1-1.2-6.1-2.8-8.8
	c-2.1-3.7-5.1-6.2-9.4-7.1c-3.5-0.8-6.9-0.7-10.4,0.3c-3.6,1-6.5,3.1-8.6,6.3c-1.2,1.9-2.1,3.9-2.6,6.1
	C136.1,56.3,135.8,60.2,135.8,63.6z"/>
<path class="st1" d="M867.9,63.7c0-10.8,0-21.6,0-32.3c0-1.6,0-1.6,1.6-1.6c6.8,0,13.6,0,20.5,0c4,0,8,0.4,11.8,1.7
	c3.8,1.3,7.2,3.3,9.6,6.7c2,2.8,3,5.9,3.4,9.3c0.4,3.5,0.3,7-0.6,10.4c-1.7,6.6-5.8,11-12,13.5c-3.7,1.5-7.6,2.1-11.6,2.3
	c-2.2,0.1-4.4,0-6.6,0c-1.8,0-1.6-0.2-1.6,1.5c0,7,0,14,0,21c0,0.3,0,0.5,0,0.8c0,0.9,0,1-0.9,1c-4.2,0-8.4,0-12.7,0
	c-0.6,0-1-0.2-0.9-0.9c0-0.3,0-0.7,0-1C867.9,85.3,867.9,74.5,867.9,63.7z M882.3,51.7c0,3.1,0,6.1,0,9.2c0,1,0,1,1,1
	c1.6,0,3.2,0.1,4.7,0c2.2-0.1,4.3-0.4,6.4-1.2c3-1.2,5-3.3,5.7-6.6c0.4-1.9,0.4-3.9-0.1-5.8c-0.7-2.9-2.4-4.9-5.3-5.9
	c-1.4-0.5-2.8-0.7-4.3-0.8c-2.3,0-4.7,0-7,0c-1,0-1.1,0-1.1,1.1C882.3,45.8,882.3,48.7,882.3,51.7z"/>
<path class="st1" d="M345.4,63.8c0-10.8,0-21.7,0-32.5c0-1.6-0.2-1.6,1.5-1.6c6.7,0,13.4,0,20.1,0c4.1,0,8.3,0.4,12.2,1.7
	c4.4,1.5,8,3.9,10.4,7.9c1.4,2.4,2.2,5.1,2.6,7.8c0.4,3.4,0.3,6.9-0.5,10.3c-1.6,6.6-5.7,11.1-11.9,13.7c-2.9,1.2-6,1.8-9.2,2.2
	c-3.2,0.3-6.3,0.2-9.5,0.2c-1.5,0-1.4-0.1-1.4,1.4c0,7.1,0,14.2,0,21.4c0,1.6,0.1,1.5-1.5,1.5c-3.9,0-7.8,0-11.6,0
	c-1.2,0-1.2,0-1.2-1.3C345.4,85.7,345.4,74.8,345.4,63.8z M359.8,51.7c0,3.1,0,6.1,0,9.2c0,0.9,0,1,0.9,1c1.7,0,3.4,0.1,5.1,0
	c1.9-0.1,3.8-0.3,5.6-1c3.3-1.2,5.5-3.4,6.2-6.9c0.4-1.9,0.3-3.8-0.1-5.7c-0.7-2.9-2.4-4.8-5.2-5.8c-1.4-0.5-2.8-0.8-4.3-0.8
	c-2.4,0-4.8,0-7.2,0c-1,0-1,0-1,1.1C359.7,45.8,359.8,48.8,359.8,51.7z"/>
<path class="st0" d="M247.7,81.4c1.4,2.4,2.7,4.7,4.1,7c0.3,0.5,0.1,0.8-0.3,1.2c-2.2,1.8-4.5,3.3-7,4.6c-4.4,2.3-9.1,3.9-14,4.7
	c-2.6,0.4-5.2,0.3-7.8,0.1c-3.5-0.3-7-1-10.3-2.4c-6.6-2.8-11.2-7.6-14.1-14.1c-1.9-4.1-2.8-8.4-3.2-12.8
	c-0.4-5.1-0.3-10.1,0.9-15.1c1.5-6.4,4.3-12,9-16.6c4.7-4.5,10.4-7.2,16.8-8.3c4.8-0.8,9.6-0.5,14.4,0.3c4.3,0.8,8.5,1.9,12.4,3.8
	c1,0.5,1,0.5,1,1.6c-0.1,3.3-0.2,6.6-0.4,10c-0.1,1.7-0.2,3.5-0.2,5.2c0,0.7-0.3,0.9-0.9,0.9c-2.2,0-4.3,0-6.5,0
	c-0.7,0-0.9-0.3-1.1-0.9c-0.5-2.9-1-5.9-1.5-8.8c-0.2-1.1-0.2-1.1-1.2-1.3c-4.7-1-9.4-1.4-14.1-0.7c-6.5,0.9-11,4.5-13.4,10.6
	c-1.2,3-1.7,6.2-1.9,9.5c-0.3,5.2-0.1,10.4,1.4,15.4c1.2,4,3.2,7.4,6.5,10c2.6,2.1,5.5,3.2,8.8,3.5c6.4,0.7,12.2-0.8,17.8-3.8
	c1.2-0.6,2.2-1.4,3.2-2.3C246.6,82.3,247.1,81.9,247.7,81.4z"/>
<path class="st1" d="M1016.2,57.7c0.5-0.5,0.6-0.9,0.9-1.3c4.3-8.4,8.6-16.9,12.8-25.3c0.4-0.9,0.9-1.3,1.9-1.2
	c4.3,0.1,8.5,0,12.8,0c0.4,0,0.8,0,1.1,0c0.3,0.5,0,0.8-0.2,1.1c-3.4,6.2-6.7,12.4-10.1,18.6c-3.8,7-7.6,14.1-11.5,21.1
	c-0.3,0.6-0.4,1.2-0.4,1.9c0,7.9,0,15.8,0,23.7c0,2.1,0.1,1.8-1.8,1.8c-3.7,0-7.4,0-11.1,0c-0.3,0-0.6,0-0.9,0
	c-0.4,0-0.6-0.2-0.6-0.6c0-0.3,0-0.7,0-1c0-7.7,0-15.4,0-23.1c0-0.9-0.2-1.6-0.6-2.4c-7.1-13.1-14.1-26.3-21.2-39.4
	c-0.8-1.5-0.8-1.5,0.9-1.5c4.2,0,8.4,0,12.5,0c1,0,1.6,0.3,2.1,1.2c4.2,8.4,8.4,16.8,12.7,25.2C1015.7,56.7,1015.9,57.1,1016.2,57.7
	z"/>
<path class="st0" d="M82.4,62.7c0-6.8,0-13.6,0-20.3c0-0.3,0-0.6,0-0.9c0.1-0.6-0.2-0.8-0.8-0.8c-1.6,0-3.2,0-4.9,0
	c-2.1,0-4.2,0-6.3,0c-0.6,0-0.8-0.2-0.8-0.8c0-2.3,0-4.5,0-6.8c0-0.6,0.3-0.8,0.8-0.8c3.6-0.3,7.2-0.7,10.8-1
	c1.1-0.1,1.1-0.1,1.1-1.2c0-4.6,0-9.1,0-13.7c0-1.2,0-1.2,1.2-1.5c3.4-0.7,6.9-1.3,10.3-2.1c1.4-0.3,1.3-0.1,1.3,1.1
	c0,5.1,0,10.2,0,15.3c0,2.1-0.2,1.8,1.9,1.8c4.9,0,9.9,0,14.8,0c0.3,0,0.6,0,0.9,0c0.7-0.1,0.9,0.3,0.9,0.9c0,1.4,0,2.8,0,4.2
	c0,1.2,0,2.4,0,3.6c0,0.7-0.2,0.9-0.9,0.9c-1.4,0-2.8,0-4.2,0c-4,0-8.1,0-12.1,0c-1.2,0-1.2,0-1.2,1.2c0,13.2,0,26.4,0,39.6
	c0,1,0,2,0.3,3c0.8,3.1,2.7,4.7,5.9,4.7c2.2,0,4.2-0.6,6.2-1.4c1-0.4,2-0.9,3-1.4c0.6-0.3,0.9-0.3,1.2,0.3c0.9,1.8,1.8,3.6,2.7,5.4
	c0.3,0.6,0.1,0.8-0.3,1.1c-5,3.5-10.5,5.8-16.7,5.9c-3.3,0.1-6.3-0.7-9.1-2.6c-2.8-2-4.3-4.7-5.1-8c-0.6-2.3-0.8-4.7-0.8-7.1
	C82.4,75.3,82.4,69,82.4,62.7C82.4,62.7,82.4,62.7,82.4,62.7z"/>
<path class="st1" d="M570.8,69.9c0,8.8,0,17.6,0,26.3c0,0.3,0,0.5,0,0.8c0,1,0,1-1,1c-4.1,0-8.3,0-12.4,0c-0.9,0-0.9,0-1-0.9
	c0-0.3,0-0.6,0-0.9c0-17.4,0-34.9,0-52.3c0-0.3,0-0.6,0-0.9c0-1.1,0-1.1-1.2-1.1c-5.2,0-10.5,0-15.7,0c-1.7,0-1.6,0.1-1.6-1.6
	c0-3.1,0-6.2,0-9.3c0-1,0-1.1,1.1-1.1c4.5,0,9,0,13.6,0c11.7,0,23.4,0,35.2,0c1.6,0,1.6,0,1.6,1.6c0,3.1,0,6.1,0,9.2
	c0,1.2,0,1.2-1.2,1.2c-5.2,0-10.4,0-15.6,0c-0.3,0-0.6,0-0.9,0c-0.6,0-0.9,0.2-0.8,0.8c0,0.3,0,0.7,0,1
	C570.8,52.4,570.8,61.1,570.8,69.9z"/>
</svg>
